<svg width="64" height="64" viewBox="0 0 64 64" fill="none" xmlns="http://www.w3.org/2000/svg">
<path d="M53.1495 5.7119H49.3409V5.3877C49.3409 3.0444 47.4346 1.1382 45.0919 1.1382C42.7511 1.1382 40.8458 3.0445 40.8458 5.3877V5.7119H22.4942V5.2461C22.4942 2.9048 20.589 1 18.2481 1C15.9053 1 13.9991 2.9048 13.9991 5.2461V5.7119H10.8536C6.37896 5.7119 2.73926 9.5752 2.73926 14.3242V54.3877C2.73926 59.1367 6.37886 63 10.8536 63H53.1495C57.6222 63 61.2608 59.1367 61.2608 54.3877V14.3242C61.2608 9.5752 57.6222 5.7119 53.1495 5.7119ZM42.8458 5.3877C42.8458 4.1475 43.8536 3.1382 45.0919 3.1382C46.3321 3.1382 47.3409 4.1475 47.3409 5.3877V8.4473C47.3409 9.6875 46.3321 10.6968 45.0919 10.6968C43.8536 10.6968 42.8458 9.6875 42.8458 8.4473V5.3877ZM15.9991 5.2461C15.9991 4.0078 17.0079 3 18.2481 3C19.4864 3 20.4942 4.0078 20.4942 5.2461V8.3091C20.4942 9.5474 19.4864 10.5552 18.2481 10.5552C17.0079 10.5552 15.9991 9.5474 15.9991 8.3091V5.2461ZM59.2608 54.3877C59.2608 58.0337 56.5196 61 53.1495 61H10.8536C7.48246 61 4.73926 58.0337 4.73926 54.3877V17.8652H59.2608V54.3877ZM59.2608 15.8652H4.73936V14.3242C4.73936 10.6782 7.48256 7.7119 10.8537 7.7119H13.9992V8.3091C13.9992 10.6504 15.9055 12.5552 18.2482 12.5552C20.589 12.5552 22.4943 10.6504 22.4943 8.3091V7.7119H40.8459V8.4473C40.8459 10.7906 42.7512 12.6968 45.092 12.6968C47.4348 12.6968 49.341 10.7905 49.341 8.4473V7.7119H53.1496C56.5197 7.7119 59.2609 10.6782 59.2609 14.3242L59.2608 15.8652Z" fill="#808080"/>
<path d="M11.4316 56.0688H21.7158H52.5683C53.121 56.0688 53.5683 55.621 53.5683 55.0688V24.2148C53.5683 23.6626 53.121 23.2148 52.5683 23.2148H11.4316C10.8789 23.2148 10.4316 23.6626 10.4316 24.2148V55.0688C10.4316 55.6211 10.8789 56.0688 11.4316 56.0688ZM51.5684 43.7842H43.2842V35.4995H51.5684V43.7842ZM41.2842 43.7842H33V35.4995H41.2842V43.7842ZM31 43.7842H22.7158V35.4995H31V43.7842ZM20.7158 43.7842H12.4316V35.4995H20.7158V43.7842ZM12.4316 45.7842H20.7158V54.0689H12.4316V45.7842ZM22.7158 45.7842H31V54.0689H22.7158V45.7842ZM33 45.7842H41.2842V54.0689H33V45.7842ZM51.5684 54.0688H43.2842V45.7841H51.5684V54.0688ZM51.5684 33.4995H43.2842V25.2148H51.5684V33.4995ZM41.2842 33.4995H33V25.2148H41.2842V33.4995ZM31 33.4995H22.7158V25.2148H31V33.4995ZM12.4316 25.2148H20.7158V33.4995H12.4316V25.2148Z" fill="#808080"/>
</svg>
