<svg width="62" height="62" viewBox="0 0 62 62" fill="none" xmlns="http://www.w3.org/2000/svg">
<path d="M53.254 14H8.74604C7.75289 14.0012 6.80076 14.3904 6.0985 15.0822C5.39624 15.774 5.00118 16.712 5 17.6904V44.3096C5.00118 45.288 5.39624 46.226 6.0985 46.9178C6.80076 47.6096 7.75289 47.9988 8.74604 48H53.254C54.2471 47.9988 55.1992 47.6096 55.9015 46.9178C56.6038 46.226 56.9988 45.288 57 44.3096V22.0466C57 21.8229 56.9098 21.6083 56.7492 21.4501C56.5886 21.2919 56.3708 21.203 56.1437 21.203H6.71115V17.6904C6.71194 17.159 6.92659 16.6495 7.30803 16.2738C7.68948 15.898 8.2066 15.6865 8.74604 15.6857H53.254C53.7934 15.6865 54.3105 15.898 54.692 16.2738C55.0734 16.6495 55.2881 17.159 55.2888 17.6904V18.9485C55.2981 19.1659 55.3922 19.3715 55.5517 19.5221C55.7111 19.6728 55.9235 19.7569 56.1444 19.7569C56.3654 19.7569 56.5777 19.6728 56.7372 19.5221C56.8966 19.3715 56.9908 19.1659 57 18.9485V17.6948C57 16.7157 56.6055 15.7765 55.9031 15.0837C55.2007 14.391 54.2479 14.0012 53.254 14ZM53.254 46.3143H8.74604C8.2066 46.3135 7.68948 46.102 7.30803 45.7262C6.92659 45.3505 6.71194 44.841 6.71115 44.3096V30.0535H55.2888V44.3096C55.2881 44.841 55.0734 45.3505 54.692 45.7262C54.3105 46.102 53.7934 46.3135 53.254 46.3143ZM55.2888 22.8887V28.3707H6.71115V22.8887H55.2888Z" fill="#808080"/>
<path d="M28.1711 34.0004H16.9094C16.7918 33.9976 16.6744 34.0085 16.5643 34.0323C16.4542 34.0561 16.3536 34.0925 16.2687 34.1391C16.1838 34.1858 16.1162 34.2418 16.07 34.3038C16.0238 34.3659 16 34.4326 16 34.5C16 34.5674 16.0238 34.6341 16.07 34.6962C16.1162 34.7582 16.1838 34.8142 16.2687 34.8609C16.3536 34.9075 16.4542 34.9439 16.5643 34.9677C16.6744 34.9915 16.7918 35.0024 16.9094 34.9996H28.1635C28.3885 34.9942 28.6012 34.9392 28.7571 34.8461C28.913 34.753 29 34.629 29 34.5C29 34.371 28.913 34.247 28.7571 34.1539C28.6012 34.0608 28.3885 34.0058 28.1635 34.0004H28.1711Z" fill="#808080"/>
<path d="M32.9617 34.3084C32.9487 34.2783 32.9336 34.2492 32.9164 34.2213C32.8974 34.1945 32.8764 34.1692 32.8537 34.1455C32.8306 34.1226 32.8052 34.1022 32.7779 34.0845C32.7506 34.0661 32.7214 34.0506 32.6908 34.0384C32.6606 34.0253 32.629 34.0156 32.5967 34.0096C32.5162 33.9936 32.4331 33.9976 32.3545 34.0213C32.276 34.045 32.2045 34.0877 32.1463 34.1455C32.1236 34.1692 32.1026 34.1945 32.0836 34.2213C32.0664 34.2492 32.0513 34.2783 32.0383 34.3084C32.0262 34.3389 32.0166 34.3704 32.0096 34.4025C32.0033 34.4346 32.0001 34.4673 32 34.5C32.0001 34.5325 32.0033 34.5649 32.0096 34.5967C32.0163 34.6289 32.0259 34.6604 32.0383 34.6908C32.0513 34.7209 32.0664 34.75 32.0836 34.7779C32.1024 34.8048 32.1234 34.8302 32.1463 34.8537C32.2404 34.9465 32.367 34.9991 32.4991 35C32.5319 35.0003 32.5646 34.9971 32.5967 34.9904C32.6288 34.9836 32.6603 34.974 32.6908 34.9617C32.7212 34.9494 32.7504 34.9342 32.7779 34.9164C32.8052 34.8981 32.8306 34.8771 32.8537 34.8537C32.8766 34.8302 32.8976 34.8048 32.9164 34.7779C32.9336 34.75 32.9487 34.7209 32.9617 34.6908C32.9741 34.6604 32.9837 34.6289 32.9904 34.5967C32.9967 34.5649 32.9999 34.5325 33 34.5C32.9999 34.4673 32.9967 34.4346 32.9904 34.4025C32.9834 34.3704 32.9738 34.3389 32.9617 34.3084Z" fill="#808080"/>
<path d="M36.9616 34.3084C36.949 34.278 36.9336 34.2488 36.9155 34.2213C36.8968 34.1945 36.8762 34.1692 36.8537 34.1455C36.7954 34.0877 36.7238 34.045 36.6452 34.0213C36.5666 33.9976 36.4834 33.9936 36.4029 34.0096C36.3709 34.0156 36.3396 34.0253 36.3098 34.0384C36.279 34.0502 36.2498 34.0657 36.2228 34.0845C36.1952 34.1022 36.1695 34.1226 36.1462 34.1455C36.1235 34.169 36.1028 34.1943 36.0844 34.2213C36.0666 34.2488 36.0514 34.278 36.0392 34.3084C36.0267 34.3388 36.0171 34.3703 36.0104 34.4025C36.0039 34.4346 36.0004 34.4673 36 34.5C36.0004 34.5325 36.0039 34.5649 36.0104 34.5967C36.0167 34.629 36.0263 34.6605 36.0392 34.6908C36.0514 34.7214 36.0668 34.7506 36.0853 34.7779C36.1029 34.8052 36.1233 34.8306 36.1462 34.8537C36.1695 34.8772 36.1952 34.8982 36.2228 34.9164C36.2501 34.9346 36.2792 34.9498 36.3098 34.9617C36.3399 34.974 36.3711 34.9836 36.4029 34.9904C36.4673 35.0032 36.5335 35.0032 36.5978 34.9904C36.6297 34.9836 36.6608 34.974 36.691 34.9617C36.7215 34.9498 36.7507 34.9346 36.778 34.9164C36.8056 34.8982 36.8313 34.8772 36.8546 34.8537C36.8772 34.8302 36.8979 34.8048 36.9164 34.7779C36.9342 34.7504 36.9494 34.7212 36.9616 34.6908C36.9744 34.6605 36.9841 34.629 36.9903 34.5967C36.9974 34.565 37.0006 34.5325 36.9999 34.5C37.0006 34.4672 36.9974 34.4345 36.9903 34.4025C36.9841 34.3702 36.9745 34.3387 36.9616 34.3084Z" fill="#808080"/>
<path d="M41.9233 34.3084C41.8974 34.2783 41.8671 34.2492 41.8328 34.2213C41.7953 34.1943 41.7534 34.169 41.7073 34.1455C41.591 34.0877 41.448 34.045 41.2909 34.0213C41.1338 33.9976 40.9675 33.9936 40.8066 34.0096C40.742 34.0158 40.6789 34.0254 40.6185 34.0384C40.5573 34.0506 40.4988 34.0661 40.4443 34.0845C40.3899 34.1024 40.3392 34.1228 40.2927 34.1455C40.2472 34.1692 40.2052 34.1945 40.1673 34.2213C40.1328 34.249 40.103 34.2782 40.0784 34.3084C40.0527 34.3387 40.0334 34.3702 40.0209 34.4025C40.007 34.4345 40 34.4672 40 34.5C40 34.5325 40.007 34.5649 40.0209 34.5967C40.0327 34.6291 40.052 34.6606 40.0784 34.6908C40.103 34.721 40.1328 34.7501 40.1673 34.7779C40.2048 34.8048 40.2467 34.8302 40.2927 34.8537C40.3391 34.8769 40.3899 34.8979 40.4443 34.9164C40.4993 34.9342 40.5576 34.9494 40.6185 34.9617C40.6795 34.9739 40.7424 34.9835 40.8066 34.9904C40.8708 34.9971 40.9362 35.0003 41.0017 35C41.2662 34.9992 41.5195 34.9467 41.7073 34.8537C41.7538 34.8304 41.7958 34.805 41.8328 34.7779C41.8671 34.75 41.8974 34.7209 41.9233 34.6908C41.949 34.6605 41.9683 34.629 41.9808 34.5967C41.9933 34.5649 41.9998 34.5325 42 34.5C41.9997 34.4673 41.9933 34.4346 41.9808 34.4025C41.9675 34.3703 41.9483 34.3388 41.9233 34.3084Z" fill="#808080"/>
</svg>
