<svg width="178" height="50" viewBox="0 0 178 50" fill="none" xmlns="http://www.w3.org/2000/svg">
<path d="M50.7414 37.3849C50.9105 37.4358 51.0507 37.4994 51.1616 37.5758C51.2722 37.6525 51.3654 37.7418 51.4402 37.8437C51.515 37.9455 51.5754 38.0571 51.6209 38.178C51.6664 38.2992 51.7087 38.4332 51.7481 38.5798L52.3638 40.7972C52.3768 40.8293 52.3768 40.8658 52.3638 40.9074C52.3508 40.9488 52.3085 40.9696 52.2369 40.9696H51.6407C51.6082 40.9696 51.5721 40.9635 51.5334 40.9505C51.4943 40.9378 51.468 40.9025 51.455 40.8455L50.8685 38.714C50.8165 38.5292 50.7547 38.3779 50.6831 38.2599C50.6112 38.1422 50.5234 38.0482 50.419 37.9779C50.3149 37.9079 50.1975 37.8599 50.0674 37.8344C49.9369 37.8089 49.787 37.7959 49.6178 37.7959H48.2299V40.8264C48.2299 40.8904 48.2184 40.93 48.1956 40.9459C48.1728 40.9621 48.132 40.9699 48.0734 40.9699H47.5065C47.4541 40.9699 47.4151 40.9621 47.3894 40.9459C47.3634 40.93 47.3503 40.8904 47.3503 40.8264V34.4221C47.3503 34.3582 47.3634 34.3185 47.3894 34.3023C47.4151 34.2864 47.4544 34.2786 47.5065 34.2786H48.0832C48.1418 34.2786 48.1823 34.2864 48.2053 34.3023C48.2281 34.3185 48.2361 34.3582 48.2299 34.4221V37.0028H49.5297C49.6338 37.0028 49.7447 36.9918 49.8621 36.9695C49.9792 36.9473 50.0916 36.9024 50.1993 36.8356C50.3069 36.7688 50.406 36.6719 50.4974 36.544C50.5885 36.4165 50.6633 36.2476 50.7221 36.0373L51.1619 34.3836C51.1749 34.3263 51.1992 34.2913 51.2352 34.2786C51.271 34.2659 51.3053 34.2595 51.3379 34.2595H51.8752C51.9536 34.2595 51.9974 34.2821 52.0071 34.3263C52.0169 34.3709 52.0151 34.4091 52.0021 34.4409L51.5721 36.1518C51.5002 36.4257 51.3994 36.6632 51.2693 36.8642C51.1388 37.0647 50.9629 37.2223 50.7417 37.3372V37.3849H50.7414Z" fill="black"/>
<path d="M57.6507 38.4554C57.6507 38.8187 57.6034 39.158 57.5091 39.4736C57.4144 39.7888 57.2745 40.0662 57.0888 40.3052C56.9031 40.5441 56.6668 40.7324 56.3802 40.8689C56.0933 41.006 55.7612 41.0746 55.3832 41.0746C55.2008 41.0746 55.0035 41.065 54.792 41.0454C54.5803 41.026 54.3538 40.9806 54.1127 40.9094V42.7661C54.1127 42.8234 54.1012 42.8601 54.0784 42.876C54.0556 42.892 54.0181 42.9001 53.966 42.9001H53.4186C53.3663 42.9001 53.3272 42.892 53.3015 42.876C53.2755 42.8601 53.2625 42.8234 53.2625 42.7664V36.3618C53.2625 36.279 53.3015 36.2247 53.3796 36.1992C53.7055 36.0592 54.0409 35.9646 54.3863 35.9169C54.7314 35.8692 55.0606 35.8455 55.3735 35.8455C55.7645 35.8455 56.1031 35.9108 56.39 36.0413C56.6765 36.172 56.9128 36.3537 57.0986 36.5862C57.2843 36.8191 57.4227 37.0947 57.5141 37.4129C57.6052 37.7323 57.6507 38.0794 57.6507 38.4554ZM56.7614 38.4554C56.7614 38.1068 56.7256 37.8118 56.6541 37.5706C56.5822 37.3299 56.4796 37.1364 56.3462 36.9906C56.2125 36.8445 56.0531 36.7387 55.8674 36.6721C55.6816 36.6056 55.4717 36.5724 55.2368 36.5724C55.0674 36.5724 54.8752 36.5883 54.6601 36.6198C54.4451 36.6513 54.2627 36.6959 54.1127 36.7528V40.1767C54.3603 40.2464 54.5738 40.2924 54.753 40.3147C54.9322 40.337 55.0967 40.348 55.2466 40.348C55.4681 40.348 55.6719 40.3147 55.8573 40.2479C56.0431 40.1814 56.2025 40.0738 56.3361 39.9248C56.4698 39.7755 56.5739 39.5809 56.649 39.3399C56.7239 39.099 56.7614 38.8039 56.7614 38.4554Z" fill="black"/>
<path d="M62.7133 40.5012C62.7133 40.6285 62.6646 40.7115 62.5667 40.7494C62.2736 40.8766 61.9559 40.9631 61.6138 41.0077C61.2719 41.0519 60.9442 41.0748 60.6316 41.0748C60.2078 41.0748 59.8612 41.0317 59.5906 40.9455C59.32 40.859 59.1067 40.7427 58.9503 40.5955C58.7938 40.4483 58.6847 40.279 58.6229 40.0873C58.5608 39.8958 58.53 39.6942 58.53 39.4833C58.53 39.2661 58.5673 39.0538 58.6424 38.8461C58.7172 38.6381 58.8394 38.4562 59.0088 38.2994C59.1783 38.1429 59.398 38.0165 59.6684 37.9205C59.9387 37.8247 60.2693 37.7767 60.6606 37.7767H61.853V37.5679C61.853 37.4163 61.8382 37.2804 61.809 37.1603C61.7797 37.0403 61.7226 36.9359 61.638 36.8471C61.5531 36.7588 61.4342 36.6909 61.2811 36.6434C61.1279 36.5963 60.9306 36.5726 60.6899 36.5726C60.4618 36.5726 60.219 36.5914 59.9617 36.6295C59.7041 36.668 59.4942 36.7125 59.3312 36.7635C59.2792 36.7825 59.2369 36.7889 59.204 36.7825C59.1715 36.7765 59.1487 36.7475 59.1357 36.6964L59.0186 36.2853C59.0053 36.2538 59.0038 36.2231 59.0136 36.1945C59.0233 36.1659 59.0541 36.1419 59.1064 36.1231C59.354 36.0212 59.6373 35.9492 59.9567 35.9081C60.2758 35.8665 60.5689 35.8459 60.8363 35.8459C61.4878 35.8459 61.9633 35.9877 62.2632 36.2714C62.5628 36.5549 62.7128 36.9674 62.7128 37.5092V40.5012H62.7133ZM61.8436 38.503H60.7097C60.5926 38.503 60.4571 38.5111 60.3039 38.527C60.1507 38.5429 60.0058 38.584 59.8692 38.6514C59.7322 38.7179 59.6166 38.8169 59.5223 38.9473C59.4276 39.0781 59.3806 39.258 59.3806 39.4874C59.3806 39.6598 59.4131 39.8047 59.4782 39.9224C59.5433 40.0404 59.6314 40.1327 59.7423 40.1998C59.8529 40.2663 59.9833 40.3143 60.1333 40.343C60.2829 40.3716 60.4462 40.3861 60.6218 40.3861C60.6804 40.3861 60.757 40.3843 60.8513 40.3809C60.9457 40.378 61.0501 40.3684 61.1642 40.3522C61.2781 40.3363 61.394 40.3172 61.5111 40.295C61.6283 40.2727 61.7392 40.2423 61.8436 40.2041V38.503Z" fill="black"/>
<path d="M66.1241 40.3479C66.3453 40.3479 66.5621 40.319 66.7741 40.262C66.9856 40.2045 67.1633 40.1408 67.3068 40.0705C67.3653 40.039 67.4076 40.0309 67.4339 40.0468C67.46 40.0627 67.4827 40.0867 67.5025 40.1186L67.698 40.5221C67.7501 40.6059 67.7338 40.6736 67.6492 40.7254C67.4017 40.8611 67.1314 40.9533 66.838 41.0016C66.5446 41.0499 66.2646 41.0742 65.9975 41.0742C65.2806 41.0742 64.7335 40.859 64.3555 40.4292C63.9776 39.9991 63.7886 39.3604 63.7886 38.5123C63.7886 38.1048 63.8424 37.7366 63.9498 37.4085C64.0574 37.0802 64.2103 36.7999 64.4091 36.5674C64.6078 36.3348 64.8503 36.1564 65.1372 36.0323C65.4238 35.9079 65.7464 35.8457 66.1049 35.8457C66.3654 35.8457 66.6144 35.8712 66.8525 35.9221C67.0903 35.9733 67.3201 36.0595 67.5416 36.1804C67.633 36.2313 67.6525 36.2984 67.6001 36.3808L67.3949 36.7728C67.3754 36.8112 67.3541 36.8384 67.3313 36.854C67.3085 36.8699 67.2677 36.8618 67.2092 36.83C67.0527 36.76 66.8833 36.7028 66.7011 36.6579C66.5186 36.6134 66.3231 36.5911 66.1146 36.5911C65.8541 36.5911 65.6308 36.6438 65.445 36.7485C65.2593 36.8535 65.1061 36.9949 64.9858 37.1728C64.8651 37.3507 64.7773 37.554 64.7219 37.7828C64.6663 38.0116 64.6388 38.2534 64.6388 38.5077C64.6388 38.762 64.6616 39.0003 64.7072 39.2227C64.7527 39.4452 64.8326 39.6404 64.9467 39.8088C65.0606 39.9774 65.212 40.1093 65.4013 40.2048C65.5897 40.3005 65.831 40.3479 66.1241 40.3479Z" fill="black"/>
<path d="M69.4721 40.9359C69.4431 40.9581 69.3964 40.9694 69.3319 40.9694H68.8584C68.7939 40.9694 68.7457 40.9581 68.7135 40.9359C68.6813 40.9136 68.6653 40.8676 68.6653 40.7973V36.1137C68.6653 36.0437 68.6813 35.9992 68.7135 35.9798C68.7457 35.961 68.7939 35.9512 68.8584 35.9512H69.3319C69.3964 35.9512 69.4431 35.9607 69.4721 35.9798C69.5011 35.9989 69.5156 36.0437 69.5156 36.1137V37.9201H72.0468V36.1137C72.0468 36.0437 72.0616 35.9992 72.0912 35.9798C72.1208 35.961 72.1687 35.9512 72.2346 35.9512H72.7191C72.7915 35.9512 72.8391 35.9607 72.8622 35.9798C72.8853 35.9989 72.8968 36.0437 72.8968 36.1137V40.7973C72.8968 40.8676 72.8853 40.9136 72.8622 40.9359C72.8391 40.9581 72.7912 40.9694 72.7191 40.9694H72.2346C72.1687 40.9694 72.1208 40.9581 72.0912 40.9359C72.0613 40.9136 72.0468 40.8676 72.0468 40.7973V38.6276H69.5156V40.7973C69.5156 40.8676 69.5011 40.9136 69.4721 40.9359Z" fill="black"/>
<path d="M78.5364 38.4362C78.5364 39.2904 78.3397 39.9435 77.9464 40.3956C77.553 40.848 76.9825 41.0745 76.2349 41.0745C75.5002 41.0745 74.9413 40.8547 74.5574 40.415C74.1738 39.975 73.9822 39.3251 73.9822 38.4651C73.9822 38.0443 74.039 37.6717 74.1528 37.3466C74.2667 37.0218 74.4258 36.7478 74.6307 36.5245C74.8354 36.3015 75.0776 36.1326 75.3571 36.0178C75.6366 35.9032 75.9388 35.8459 76.2642 35.8459C77.0053 35.8459 77.5693 36.0753 77.9561 36.5341C78.3429 36.9928 78.5364 37.6272 78.5364 38.4362ZM77.6861 38.4648C77.6861 38.2164 77.6666 37.9757 77.6275 37.7429C77.5885 37.5106 77.5166 37.3067 77.4125 37.1314C77.3084 36.9561 77.165 36.8144 76.9825 36.7059C76.8 36.5977 76.5655 36.5433 76.2789 36.5433C76.0314 36.5433 75.8164 36.5942 75.6339 36.6961C75.4514 36.7982 75.3015 36.935 75.1844 37.1071C75.0673 37.2795 74.9791 37.4799 74.9206 37.7093C74.862 37.9387 74.8327 38.1811 74.8327 38.4359C74.8327 38.7226 74.8555 38.9855 74.9011 39.2247C74.9466 39.4636 75.0247 39.6676 75.1356 39.8365C75.2462 40.0054 75.3911 40.1376 75.5703 40.233C75.7496 40.3285 75.9761 40.3765 76.2497 40.3765C76.5232 40.3765 76.753 40.3221 76.9387 40.214C77.1242 40.1058 77.2723 39.9623 77.3833 39.7841C77.4942 39.6057 77.5722 39.4017 77.6178 39.1724C77.663 38.943 77.6861 38.707 77.6861 38.4648Z" fill="black"/>
<path d="M79.6013 40.2908C79.7639 40.1127 79.8846 39.9053 79.9629 39.6698C80.041 39.4338 80.1096 39.128 80.1682 38.7517L80.5299 36.4099C80.5494 36.2445 80.6083 36.1265 80.7059 36.0562C80.8035 35.9862 80.9466 35.9512 81.1359 35.9512H83.55C83.765 35.9512 83.8984 35.994 83.9508 36.0799C84.0028 36.1661 84.0291 36.276 84.0291 36.4099V40.3001L84.3125 40.3192C84.4494 40.3322 84.5325 40.375 84.5618 40.4482C84.5911 40.5217 84.6023 40.5867 84.5961 40.6443L84.4884 42.3361C84.4884 42.4192 84.4527 42.4605 84.3811 42.4605H83.8437C83.7852 42.4605 83.7523 42.4192 83.7458 42.3361L83.6873 40.9694H79.9928L79.8949 42.3648C79.8949 42.4093 79.8834 42.4397 79.8606 42.4556C79.8378 42.4715 79.8133 42.4793 79.7873 42.4793H79.2496C79.2236 42.4793 79.2023 42.4733 79.186 42.4602C79.1698 42.4475 79.1582 42.4157 79.152 42.3648L79.0444 40.6539C79.0379 40.5772 79.0541 40.5055 79.0932 40.4389C79.1322 40.3718 79.2171 40.3322 79.3472 40.3192L79.6013 40.2908ZM83.1783 36.6778H81.2725L81.038 38.2591C80.9856 38.6039 80.9416 38.8885 80.9061 39.1121C80.87 39.3357 80.8342 39.5208 80.7987 39.6681C80.7626 39.815 80.7221 39.9348 80.6766 40.0273C80.6307 40.1199 80.5787 40.2078 80.5201 40.2908H83.1783V36.6778Z" fill="black"/>
<path d="M89.5505 40.5012C89.5505 40.6285 89.5017 40.7115 89.4038 40.7494C89.1107 40.8766 88.7931 40.9631 88.4509 41.0077C88.109 41.0519 87.7813 41.0748 87.4687 41.0748C87.0449 41.0748 86.6983 41.0317 86.4277 40.9455C86.1574 40.859 85.9438 40.7427 85.7877 40.5955C85.6312 40.4483 85.5221 40.279 85.4603 40.0873C85.3982 39.8958 85.3674 39.6942 85.3674 39.4833C85.3674 39.2661 85.4047 39.0538 85.4798 38.8461C85.5546 38.6381 85.6768 38.4562 85.8462 38.2994C86.0157 38.1429 86.2354 38.0165 86.5058 37.9205C86.7761 37.8247 87.1067 37.7767 87.498 37.7767H88.6904V37.5679C88.6904 37.4163 88.6756 37.2804 88.6464 37.1603C88.6171 37.0403 88.56 36.9359 88.4754 36.8471C88.3905 36.7588 88.2717 36.6909 88.1185 36.6434C87.9653 36.5963 87.768 36.5726 87.5273 36.5726C87.2992 36.5726 87.0564 36.5914 86.7991 36.6295C86.5415 36.668 86.3316 36.7125 86.1686 36.7635C86.1166 36.7825 86.0743 36.7889 86.0414 36.7825C86.0089 36.7765 85.9861 36.7475 85.9731 36.6964L85.8557 36.2853C85.8427 36.2538 85.8409 36.2231 85.8507 36.1945C85.8604 36.1659 85.8912 36.1419 85.9435 36.1231C86.1911 36.0212 86.4744 35.9492 86.7938 35.9081C87.1129 35.8665 87.406 35.8459 87.6734 35.8459C88.3249 35.8459 88.8004 35.9877 89.1003 36.2714C89.3999 36.5549 89.5499 36.9674 89.5499 37.5092V40.5012H89.5505ZM88.6807 38.503H87.5468C87.4297 38.503 87.2942 38.5111 87.141 38.527C86.9878 38.5429 86.8429 38.584 86.7063 38.6514C86.5693 38.7179 86.4537 38.8169 86.3594 38.9473C86.2647 39.0781 86.2177 39.258 86.2177 39.4874C86.2177 39.6598 86.2502 39.8047 86.3153 39.9224C86.3804 40.0404 86.4685 40.1327 86.5794 40.1998C86.69 40.2663 86.8204 40.3143 86.9704 40.343C87.12 40.3716 87.2833 40.3861 87.4589 40.3861C87.5175 40.3861 87.5941 40.3843 87.6884 40.3809C87.7828 40.378 87.8872 40.3684 88.0013 40.3522C88.1152 40.3363 88.2311 40.3172 88.3483 40.295C88.4654 40.2727 88.5763 40.2423 88.6807 40.2041V38.503Z" fill="black"/>
<path d="M95.2094 38.4554C95.2094 38.8187 95.162 39.158 95.0677 39.4736C94.9731 39.7888 94.8332 40.0662 94.6474 40.3052C94.4617 40.5441 94.2254 40.7324 93.9388 40.8689C93.652 41.006 93.3198 41.0746 92.9419 41.0746C92.7594 41.0746 92.5621 41.065 92.3504 41.0454C92.1386 41.026 91.9121 40.9806 91.6711 40.9094V42.7661C91.6711 42.8234 91.6595 42.8601 91.6368 42.876C91.614 42.892 91.5764 42.9001 91.5244 42.9001H90.9769C90.9246 42.9001 90.8856 42.892 90.8598 42.876C90.8338 42.8601 90.8208 42.8234 90.8208 42.7664V36.3618C90.8208 36.279 90.8598 36.2247 90.9382 36.1992C91.2641 36.0592 91.5995 35.9646 91.9449 35.9169C92.2901 35.8692 92.6192 35.8455 92.9321 35.8455C93.3231 35.8455 93.6617 35.9108 93.9486 36.0413C94.2352 36.172 94.4715 36.3537 94.6569 36.5862C94.8426 36.8191 94.981 37.0947 95.0724 37.4129C95.1638 37.7323 95.2094 38.0794 95.2094 38.4554ZM94.3201 38.4554C94.3201 38.1068 94.2843 37.8118 94.2127 37.5706C94.1408 37.3299 94.0382 37.1364 93.9048 36.9906C93.7712 36.8445 93.6117 36.7387 93.426 36.6721C93.2403 36.6056 93.0303 36.5724 92.7955 36.5724C92.626 36.5724 92.4338 36.5883 92.2188 36.6198C92.0038 36.6513 91.8213 36.6959 91.6714 36.7528V40.1767C91.9189 40.2464 92.1324 40.2924 92.3116 40.3147C92.4909 40.337 92.6553 40.348 92.8052 40.348C93.0265 40.348 93.2305 40.3147 93.416 40.2479C93.6017 40.1814 93.7611 40.0738 93.8948 39.9248C94.0285 39.7755 94.1326 39.5809 94.2077 39.3399C94.2825 39.099 94.3201 38.8039 94.3201 38.4554Z" fill="black"/>
<path d="M24.2804 21.3918L23.7357 21.8269C23.3663 22.121 22.9836 22.4256 22.5944 22.7409C23.631 25.5183 25.3815 27.5159 25.8192 30.4261C26.2687 33.4198 24.2647 36.5241 20.7894 37.096C18.2641 37.5116 15.4285 36.0301 14.407 33.3495C14.1236 34.3966 13.9622 35.5088 13.9622 36.6948C13.9622 43.6157 19.3997 46.0709 24.0562 46.0709C28.4605 46.0709 31.8695 43.9964 34.9639 41.2357C36.6547 38.1436 37.2341 34.6518 36.8801 31.4708C35.9916 23.5016 30.3592 22.7713 26.0679 14.5967C26.1262 17.6237 26.0052 20.0129 24.2804 21.3918Z" fill="#9E9E9E"/>
<path d="M25.237 1.56722C25.4014 1.03876 24.7916 0.588967 24.3486 0.931732C14.5351 8.51942 0.771729 21.4519 0.771729 34.3755C0.771729 44.8158 9.29038 50.0076 18.6217 50.0076C28.484 50.0076 33.923 45.0695 36.0497 38.9228C30.9496 49.6888 12.0393 49.1829 12.0393 35.9606C12.0393 28.0006 18.523 23.182 22.7888 19.7708C25.7099 17.4348 22.6131 9.97495 25.237 1.56722Z" fill="#5A5A5A"/>
<path d="M49.1736 29.7366C49.1736 29.8812 49.1499 29.9715 49.1026 30.0073C49.0553 30.0435 48.9577 30.0617 48.8101 30.0617H47.6245C47.5082 30.0617 47.4192 30.0412 47.3559 29.9998C47.2926 29.9584 47.261 29.8711 47.261 29.7369V20.0888C47.261 19.8004 47.3243 19.5812 47.4509 19.4319C47.5774 19.2824 47.809 19.2078 48.1462 19.2078H51.9086C52.4353 19.2078 52.9177 19.2876 53.3554 19.4473C53.7925 19.6075 54.1666 19.834 54.4778 20.1279C54.7886 20.4218 55.0308 20.7723 55.2047 21.1793C55.3789 21.5866 55.4658 22.0323 55.4658 22.5165C55.4658 22.7951 55.4209 23.1271 55.3313 23.5139C55.2417 23.9003 55.0627 24.274 54.7939 24.6347C54.5254 24.9957 54.1483 25.3023 53.6639 25.5548C53.1788 25.8074 52.5415 25.9338 51.751 25.9338H49.1742V29.7366H49.1736ZM53.4734 22.6398C53.4734 22.4648 53.4441 22.2738 53.3865 22.0676C53.3285 21.8614 53.2285 21.6734 53.086 21.5033C52.9437 21.3332 52.7462 21.1918 52.493 21.0781C52.2402 20.9647 51.9187 20.908 51.5289 20.908H49.1892V24.3403H51.5605C52.2245 24.3403 52.7092 24.1806 53.015 23.861C53.3208 23.5422 53.4734 23.1347 53.4734 22.6398Z" fill="black"/>
<path d="M66.8471 24.6038C66.8471 26.3975 66.4443 27.7838 65.6378 28.763C64.8316 29.7424 63.6116 30.2318 61.9782 30.2318C60.3868 30.2318 59.1961 29.76 58.4056 28.8171C57.6154 27.8738 57.22 26.49 57.22 24.6654C57.22 23.7794 57.3386 22.9906 57.5758 22.2999C57.8129 21.6094 58.1448 21.0243 58.5715 20.5453C58.9983 20.066 59.504 19.7001 60.089 19.4473C60.6743 19.1951 61.3193 19.0684 62.0255 19.0684C62.8161 19.0684 63.514 19.1951 64.1203 19.4473C64.7263 19.7001 65.2293 20.066 65.6301 20.5453C66.0305 21.0243 66.3337 21.6068 66.5389 22.2924C66.7444 22.9779 66.8471 23.7485 66.8471 24.6038ZM64.8555 24.6654C64.8555 24.1502 64.8159 23.6582 64.7369 23.1891C64.658 22.7202 64.5157 22.3054 64.3105 21.9444C64.1049 21.5837 63.8204 21.2979 63.4566 21.0862C63.0932 20.8753 62.6265 20.7692 62.0578 20.7692C61.5728 20.7692 61.1513 20.8698 60.7932 21.0709C60.4347 21.2716 60.1372 21.5475 59.9 21.8978C59.6628 22.2484 59.4863 22.6528 59.3703 23.1115C59.2541 23.5703 59.1964 24.0623 59.1964 24.5879C59.1964 25.1855 59.2411 25.727 59.3307 26.2112C59.4203 26.6957 59.5759 27.1105 59.7971 27.4558C60.0183 27.8012 60.3108 28.0665 60.6746 28.2522C61.0383 28.4379 61.4885 28.5304 62.0258 28.5304C62.5632 28.5304 63.0139 28.4222 63.3774 28.2059C63.7412 27.9892 64.0336 27.7034 64.2549 27.3477C64.4761 26.9922 64.6314 26.5823 64.7213 26.1183C64.8103 25.6549 64.8555 25.1707 64.8555 24.6654Z" fill="black"/>
<path d="M74.1189 28.4846C74.5933 28.4846 75.0304 28.4302 75.4308 28.322C75.8313 28.2138 76.2054 28.0929 76.5532 27.9587C76.7007 27.8968 76.8034 27.8867 76.8613 27.9278C76.919 27.9691 76.9643 28.031 76.9959 28.1135L77.407 28.9948C77.4806 29.1392 77.5069 29.2398 77.4859 29.2962C77.4649 29.3529 77.4123 29.4073 77.328 29.4588C76.7907 29.768 76.216 29.9742 75.605 30.0772C74.9937 30.1802 74.4037 30.232 73.8347 30.232C72.2326 30.232 71.023 29.7787 70.2065 28.8713C69.3896 27.9645 68.9812 26.5986 68.9812 24.7743C68.9812 23.9187 69.1022 23.1406 69.3447 22.4398C69.5869 21.7389 69.924 21.141 70.3564 20.6461C70.7885 20.1515 71.3102 19.7676 71.9215 19.4946C72.5325 19.2215 73.2121 19.0847 73.961 19.0847C74.4353 19.0847 74.9224 19.1261 75.4228 19.2085C75.9232 19.2912 76.4319 19.4665 76.9483 19.7341C77.0326 19.7755 77.0882 19.8243 77.1142 19.881C77.1405 19.9377 77.1219 20.0384 77.0592 20.1824L76.6165 21.0794C76.5742 21.1824 76.5319 21.2495 76.4899 21.2804C76.4476 21.3111 76.3686 21.301 76.2527 21.2495C75.9049 21.1156 75.5491 21.01 75.1856 20.9325C74.8222 20.8549 74.4401 20.8165 74.0396 20.8165C73.5126 20.8165 73.0569 20.9249 72.6724 21.1413C72.2873 21.3577 71.9715 21.6492 71.7239 22.0149C71.4761 22.381 71.2916 22.8036 71.1706 23.2829C71.0493 23.7619 70.9887 24.2595 70.9887 24.7749C70.9887 25.2904 71.0387 25.772 71.139 26.2203C71.2392 26.6689 71.4078 27.0606 71.645 27.3953C71.8822 27.7302 72.2036 27.9957 72.6094 28.1916C73.0146 28.3865 73.5182 28.4846 74.1189 28.4846Z" fill="black"/>
<path d="M86.2119 24.1247C86.5067 24.2384 86.7649 24.3903 86.9864 24.5806C87.2076 24.7715 87.3869 24.9853 87.5235 25.2224C87.6604 25.4596 87.763 25.7119 87.832 25.98C87.9003 26.2481 87.9349 26.5212 87.9349 26.7995C87.9349 27.284 87.8373 27.7271 87.6424 28.1292C87.4472 28.5312 87.184 28.8766 86.8519 29.165C86.52 29.4536 86.1299 29.6752 85.6822 29.83C85.2341 29.9844 84.7518 30.0619 84.2357 30.0619H80.3786C80.0411 30.0619 79.8096 29.9922 79.6833 29.8531C79.5567 29.714 79.4934 29.4898 79.4934 29.1806V20.105C79.4934 19.8062 79.5567 19.5846 79.6833 19.44C79.8099 19.2959 80.0414 19.2236 80.3786 19.2236L84.0461 19.208C84.5308 19.208 84.9839 19.2598 85.4057 19.3625C85.8271 19.4657 86.1882 19.6254 86.4884 19.8418C86.7889 20.0584 87.0257 20.3367 87.1996 20.6768C87.3738 21.017 87.4608 21.4243 87.4608 21.8984C87.4608 22.3623 87.3422 22.7823 87.105 23.1583C86.8678 23.5347 86.57 23.8207 86.2119 24.0166V24.1247ZM81.422 23.4291H83.9828C84.1304 23.4291 84.291 23.4111 84.4649 23.3747C84.6388 23.3388 84.7994 23.272 84.9473 23.174C85.0945 23.0759 85.2158 22.9417 85.311 22.7716C85.4057 22.6015 85.453 22.3776 85.453 22.0991C85.453 21.7283 85.3291 21.4344 85.0815 21.218C84.8337 21.0014 84.4989 20.8932 84.0775 20.8932H81.422V23.4291ZM85.943 26.6759C85.943 26.181 85.7821 25.7769 85.461 25.4622C85.1392 25.1481 84.6675 24.9908 84.0461 24.9908H81.422V28.3611H84.0301C84.4096 28.3611 84.7204 28.3068 84.9626 28.1986C85.2048 28.0904 85.4 27.9539 85.5479 27.789C85.6952 27.6244 85.7981 27.441 85.8561 27.2403C85.914 27.0393 85.943 26.8512 85.943 26.6759Z" fill="black"/>
<path d="M99.6957 24.6038C99.6957 26.3975 99.2929 27.7838 98.4864 28.763C97.6802 29.7424 96.4602 30.2318 94.8268 30.2318C93.2354 30.2318 92.0448 29.76 91.2542 28.8171C90.464 27.8738 90.0686 26.49 90.0686 24.6654C90.0686 23.7794 90.1872 22.9906 90.4244 22.2999C90.6616 21.6094 90.9934 21.0243 91.4202 20.5453C91.8469 20.066 92.3526 19.7001 92.9376 19.4473C93.5226 19.1951 94.1679 19.0684 94.8742 19.0684C95.6647 19.0684 96.3626 19.1951 96.9689 19.4473C97.5749 19.7001 98.078 20.066 98.4784 20.5453C98.8788 21.0243 99.182 21.6068 99.3872 22.2924C99.5931 22.9779 99.6957 23.7485 99.6957 24.6038ZM97.7042 24.6654C97.7042 24.1502 97.6645 23.6582 97.5856 23.1891C97.5066 22.7202 97.3643 22.3054 97.1591 21.9444C96.9535 21.5837 96.669 21.2979 96.3053 21.0862C95.9418 20.8753 95.4751 20.7692 94.9064 20.7692C94.4214 20.7692 93.9999 20.8698 93.6418 21.0709C93.2833 21.2716 92.9858 21.5475 92.7489 21.8978C92.5118 22.2484 92.3352 22.6528 92.2193 23.1115C92.103 23.5703 92.0454 24.0623 92.0454 24.5879C92.0454 25.1855 92.09 25.727 92.1796 26.2112C92.2692 26.6957 92.4248 27.1105 92.646 27.4558C92.8672 27.8012 93.1597 28.0665 93.5235 28.2522C93.887 28.4379 94.3374 28.5304 94.8748 28.5304C95.4121 28.5304 95.8628 28.4222 96.2263 28.2059C96.5898 27.9892 96.8826 27.7034 97.1038 27.3477C97.325 26.9922 97.4803 26.5823 97.5702 26.1183C97.6592 25.6549 97.7042 25.1707 97.7042 24.6654Z" fill="black"/>
<path d="M102.779 30.062L102.589 32.3347C102.578 32.4481 102.552 32.5224 102.51 32.5585C102.468 32.5947 102.404 32.6129 102.32 32.6129H101.277C101.203 32.6129 101.145 32.595 101.103 32.5585C101.061 32.5224 101.034 32.4478 101.024 32.3347L100.802 29.165C100.802 28.99 100.837 28.8275 100.905 28.6779C100.974 28.5284 101.129 28.4433 101.372 28.4228L101.941 28.3765C102.131 28.1703 102.286 27.9565 102.407 27.7347C102.528 27.5131 102.628 27.2736 102.708 27.0159C102.787 26.7582 102.852 26.4724 102.905 26.1577C102.958 25.8435 103.01 25.4904 103.063 25.0987L103.711 20.182C103.764 19.8626 103.88 19.6255 104.059 19.471C104.238 19.3162 104.512 19.239 104.881 19.239H109.766C110.155 19.239 110.427 19.3241 110.58 19.4941C110.733 19.6642 110.809 19.9245 110.809 20.2748V28.4072L111.457 28.4381C111.71 28.4587 111.865 28.5284 111.923 28.647C111.981 28.7653 112.005 28.892 111.994 29.0259L111.789 32.3344C111.778 32.4478 111.755 32.5221 111.718 32.5583C111.681 32.5944 111.62 32.6126 111.536 32.6126H110.477C110.393 32.6126 110.335 32.5947 110.303 32.5583C110.272 32.5221 110.25 32.4475 110.24 32.3344L110.145 30.0617L102.779 30.062ZM108.896 20.8933H105.45L105.071 23.9547C104.976 24.7585 104.892 25.4079 104.818 25.9025C104.744 26.3975 104.671 26.7995 104.597 27.1084C104.523 27.4177 104.447 27.6626 104.368 27.8429C104.289 28.0233 104.191 28.2064 104.076 28.3916H108.897V20.8933H108.896Z" fill="black"/>
<path d="M123.345 24.6038C123.345 26.3975 122.942 27.7838 122.136 28.763C121.329 29.7424 120.109 30.2318 118.476 30.2318C116.885 30.2318 115.694 29.76 114.903 28.8171C114.113 27.8738 113.718 26.49 113.718 24.6654C113.718 23.7794 113.836 22.9906 114.074 22.2999C114.311 21.6094 114.643 21.0243 115.069 20.5453C115.496 20.066 116.002 19.7001 116.587 19.4473C117.172 19.1951 117.817 19.0684 118.523 19.0684C119.314 19.0684 120.012 19.1951 120.618 19.4473C121.224 19.7001 121.727 20.066 122.128 20.5453C122.528 21.0243 122.831 21.6068 123.036 22.2924C123.242 22.9779 123.345 23.7485 123.345 24.6038ZM121.353 24.6654C121.353 24.1502 121.314 23.6582 121.235 23.1891C121.156 22.7202 121.014 22.3054 120.808 21.9444C120.603 21.5837 120.318 21.2979 119.954 21.0862C119.591 20.8753 119.124 20.7692 118.556 20.7692C118.071 20.7692 117.649 20.8698 117.291 21.0709C116.933 21.2716 116.635 21.5475 116.398 21.8978C116.161 22.2484 115.984 22.6528 115.868 23.1115C115.752 23.5703 115.694 24.0623 115.694 24.5879C115.694 25.1855 115.739 25.727 115.829 26.2112C115.918 26.6957 116.074 27.1105 116.295 27.4558C116.516 27.8012 116.809 28.0665 117.172 28.2522C117.536 28.4379 117.986 28.5304 118.524 28.5304C119.061 28.5304 119.512 28.4222 119.875 28.2059C120.239 27.9892 120.531 27.7034 120.753 27.3477C120.974 26.9922 121.129 26.5823 121.219 26.1183C121.308 25.6549 121.353 25.1707 121.353 24.6654Z" fill="black"/>
<path d="M131.77 24.279C132.044 24.3716 132.271 24.4777 132.45 24.596C132.629 24.7146 132.777 24.854 132.893 25.0134C133.009 25.1734 133.101 25.3484 133.17 25.539C133.238 25.7299 133.304 25.9384 133.367 26.1652L134.347 29.752C134.368 29.8037 134.371 29.8679 134.355 29.9452C134.339 30.0227 134.263 30.0612 134.126 30.0612H132.735C132.682 30.0612 132.624 30.051 132.561 30.0302C132.497 30.01 132.45 29.9481 132.419 29.8445L131.47 26.4588C131.312 25.902 131.078 25.5338 130.767 25.3533C130.456 25.1731 130.026 25.0825 129.478 25.0825H127.692L127.708 29.8139C127.708 29.9275 127.687 29.997 127.645 30.0227C127.602 30.0484 127.528 30.0615 127.423 30.0615H126.079C125.985 30.0615 125.913 30.0484 125.866 30.0227C125.819 29.997 125.795 29.9275 125.795 29.8139V19.4861C125.795 19.3727 125.819 19.3033 125.866 19.2772C125.913 19.2518 125.984 19.2388 126.079 19.2388H127.439C127.545 19.2388 127.618 19.2518 127.66 19.2772C127.702 19.3033 127.713 19.3727 127.692 19.4861V23.5058H129.383C129.541 23.5058 129.71 23.4931 129.889 23.4671C130.068 23.4416 130.245 23.3768 130.419 23.2738C130.593 23.1712 130.753 23.0216 130.901 22.8255C131.049 22.6297 131.164 22.367 131.249 22.037L131.945 19.4239C131.965 19.3212 132.01 19.2593 132.079 19.2385C132.148 19.2179 132.208 19.2075 132.261 19.2075H133.557C133.694 19.2075 133.77 19.2463 133.786 19.3235C133.802 19.4007 133.799 19.4652 133.778 19.5167L133.083 22.284C132.977 22.717 132.817 23.096 132.601 23.4205C132.385 23.7453 132.108 24.0057 131.77 24.2012V24.279H131.77Z" fill="black"/>
<path d="M142.236 27.6959H138.22L137.525 29.7987C137.493 29.8916 137.448 29.9587 137.39 29.9998C137.332 30.0411 137.24 30.0617 137.114 30.0617H135.659C135.543 30.0617 135.469 30.0284 135.438 29.961C135.406 29.8942 135.406 29.8196 135.438 29.7368L138.853 19.9499C138.905 19.7955 138.957 19.6717 139.01 19.5791C139.063 19.4863 139.129 19.4142 139.208 19.3625C139.287 19.311 139.379 19.2722 139.485 19.2468C139.589 19.221 139.716 19.208 139.864 19.208H140.544C140.87 19.208 141.102 19.2572 141.239 19.3549C141.376 19.453 141.497 19.6511 141.603 19.9502L145.033 29.7371C145.065 29.8198 145.067 29.8945 145.041 29.9613C145.015 30.0284 144.943 30.0619 144.827 30.0619H143.373C143.257 30.0619 143.165 30.0489 143.096 30.0232C143.028 29.9974 142.973 29.928 142.93 29.8143L142.236 27.6959ZM138.694 26.0879H141.73L140.908 23.4907L140.244 21.295H140.165L139.517 23.4441L138.694 26.0879Z" fill="black"/>
<path d="M155.585 30.0076C155.538 30.0437 155.44 30.062 155.293 30.062H154.092C153.965 30.062 153.873 30.0414 153.815 30.0001C153.757 29.9587 153.728 29.8713 153.728 29.7371V25.1915H148.812V29.7371C148.812 29.8818 148.785 29.972 148.733 30.0079C148.68 30.044 148.58 30.0622 148.432 30.0622H147.231C147.115 30.0622 147.026 30.0417 146.962 30.0003C146.899 29.959 146.867 29.8716 146.867 29.7374V19.5638C146.867 19.4299 146.899 19.3422 146.962 19.3012C147.026 19.2598 147.115 19.2393 147.231 19.2393H148.432C148.58 19.2393 148.68 19.2572 148.733 19.2933C148.785 19.3295 148.812 19.4198 148.812 19.5641V23.5685H153.728V19.5638C153.728 19.4299 153.757 19.3422 153.815 19.3012C153.872 19.2598 153.965 19.2393 154.092 19.2393H155.293C155.44 19.2393 155.538 19.2572 155.585 19.2933C155.633 19.3295 155.656 19.4198 155.656 19.5641V29.7374C155.656 29.8818 155.633 29.9717 155.585 30.0076Z" fill="black"/>
<path d="M164.287 27.6959H160.272L159.577 29.7987C159.545 29.8916 159.5 29.9587 159.443 29.9998C159.385 30.0411 159.292 30.0617 159.166 30.0617H157.711C157.595 30.0617 157.522 30.0284 157.49 29.961C157.459 29.8942 157.459 29.8196 157.49 29.7368L160.905 19.9499C160.957 19.7955 161.01 19.6717 161.063 19.5791C161.116 19.4863 161.181 19.4142 161.26 19.3625C161.339 19.311 161.431 19.2722 161.537 19.2468C161.642 19.221 161.769 19.208 161.916 19.208H162.596C162.923 19.208 163.155 19.2572 163.292 19.3549C163.429 19.453 163.55 19.6511 163.655 19.9502L167.086 29.7371C167.117 29.8198 167.12 29.8945 167.094 29.9613C167.067 30.0284 166.996 30.0619 166.88 30.0619H165.426C165.309 30.0619 165.218 30.0489 165.149 30.0232C165.081 29.9974 165.025 29.928 164.983 29.8143L164.287 27.6959ZM160.746 26.0879H163.782L162.96 23.4907L162.296 21.295H162.217L161.569 23.4441L160.746 26.0879Z" fill="black"/>
<path d="M170.374 20.2751C170.395 19.904 170.487 19.6387 170.65 19.4788C170.813 19.3191 171.058 19.2393 171.385 19.2393H176.57C177.244 19.2393 177.582 19.5846 177.582 20.2751V29.799C177.582 29.9127 177.561 29.9847 177.519 30.0157C177.476 30.0463 177.397 30.062 177.281 30.062H175.938C175.832 30.062 175.756 30.0463 175.709 30.0157C175.661 29.9847 175.638 29.9127 175.638 29.799V20.8932H172.144L172.049 22.2382C171.965 23.3926 171.879 24.4235 171.79 25.3304C171.701 26.2375 171.547 27.026 171.328 27.6959C171.109 28.3661 170.789 28.9174 170.37 29.3504C169.95 29.7834 169.372 30.1079 168.634 30.3243C168.529 30.3448 168.442 30.3422 168.374 30.3168C168.305 30.2908 168.25 30.2213 168.208 30.1079L167.876 29.1959C167.855 29.1031 167.852 29.0259 167.868 28.964C167.884 28.9021 167.949 28.8456 168.066 28.7939C168.508 28.6082 168.853 28.3713 169.101 28.0826C169.349 27.7942 169.541 27.4075 169.678 26.923C169.815 26.4385 169.918 25.8328 169.986 25.1062C170.055 24.3796 170.131 23.4806 170.215 22.4083L170.374 20.2751Z" fill="black"/>
</svg>
