<svg width="184" height="30" viewBox="0 0 184 30" fill="none" xmlns="http://www.w3.org/2000/svg">
<g clip-path="url(#clip0_371_17365)">
<path d="M25.6391 5.84644C26.308 6.72093 26.8744 7.67099 27.3266 8.67755L14.4988 18.2387L9.1377 14.8407V10.7528L14.4988 14.1508L25.6391 5.84644Z" fill="#535353"/>
<path d="M3.66647 14.552C3.66647 14.3686 3.6709 14.1864 3.67975 14.0052L0.43078 13.8442C0.419722 14.079 0.41309 14.3161 0.41309 14.5554C0.411708 16.4247 0.77536 18.2759 1.4832 20.0028C2.19103 21.7297 3.2291 23.2983 4.53788 24.6186L6.84245 22.2895C5.835 21.275 5.03579 20.0691 4.49075 18.7412C3.9457 17.4134 3.66558 15.9897 3.66647 14.552Z" fill="black" fill-opacity="0.2"/>
<path d="M14.496 3.60226C14.6773 3.60226 14.8575 3.60897 15.0367 3.61792L15.1992 0.331723C14.9663 0.320542 14.7319 0.314952 14.496 0.314952C12.6463 0.312671 10.8145 0.679836 9.10556 1.39536C7.39665 2.11089 5.84437 3.16069 4.53784 4.48448L6.84241 6.81466C7.84584 5.79568 9.03858 4.9873 10.3521 4.436C11.6655 3.88471 13.0738 3.60136 14.496 3.60226Z" fill="black" fill-opacity="0.2"/>
<path d="M14.4959 25.5018C14.3146 25.5018 14.1343 25.5018 13.9541 25.4872L13.7915 28.7723C14.0252 28.7842 14.26 28.7902 14.4959 28.7902C16.3448 28.7922 18.1758 28.4248 19.8837 27.709C21.5917 26.9933 23.143 25.9433 24.4485 24.6196L22.1484 22.2905C21.1448 23.309 19.9522 24.1169 18.6389 24.668C17.3257 25.2191 15.9177 25.5025 14.4959 25.5018Z" fill="black" fill-opacity="0.2"/>
<path d="M20.6004 5.51282L23.3385 3.47222C20.8359 1.4232 17.712 0.307789 14.4917 0.313498V3.60193C16.6723 3.59919 18.8023 4.26551 20.6004 5.51282Z" fill="black" fill-opacity="0.2"/>
<path d="M28.5778 14.5521C28.5796 13.6966 28.5056 12.8426 28.3566 12.0005L25.3255 14.2591C25.3255 14.3564 25.3255 14.4537 25.3255 14.5521C25.3263 16.082 25.0091 17.595 24.3946 18.9931C23.78 20.3911 22.8817 21.6429 21.7581 22.6675L23.9443 25.1107C25.4052 23.7771 26.5726 22.1481 27.3708 20.3293C28.1691 18.5103 28.5803 16.542 28.5778 14.5521Z" fill="black" fill-opacity="0.2"/>
<path d="M14.4959 25.5019C12.9827 25.5024 11.4863 25.1816 10.1034 24.5602C8.72062 23.9389 7.48229 23.0307 6.46862 21.8948L4.05347 24.1042C5.37214 25.5815 6.98318 26.7621 8.78213 27.5694C10.5811 28.3766 12.5277 28.7926 14.4959 28.7903V25.5019Z" fill="black" fill-opacity="0.2"/>
<path d="M7.23393 6.43653L5.04878 3.99341C3.58749 5.32664 2.41967 6.95555 1.62106 8.7745C0.822463 10.5934 0.410909 12.5618 0.413095 14.5519H3.66648C3.66581 13.0221 3.98304 11.5091 4.59758 10.111C5.21214 8.71304 6.11032 7.46116 7.23393 6.43653Z" fill="black" fill-opacity="0.2"/>
<mask id="mask0_371_17365" style="mask-type:luminance" maskUnits="userSpaceOnUse" x="36" y="5" width="148" height="20">
<path d="M183.123 5.26709H36.1606V24.0903H183.123V5.26709Z" fill="white"/>
</mask>
<g mask="url(#mask0_371_17365)">
<path d="M81.6804 8.45634L85.7098 5.48877H72.2244V23.3213H85.7098V20.3537H76.0723V15.7859H84.2935V12.8183H76.0723V8.45634H81.6804Z" fill="#3F3F3F"/>
<path d="M63.1505 12.4356H58.4687V8.4551H65.9407L69.9677 5.47852H54.623V23.311H62.6553C67.1586 23.311 69.743 21.2707 69.743 17.7123C69.743 14.3082 67.4021 12.4356 63.1505 12.4356ZM62.4821 20.3425H58.4687V15.4014H62.4821C64.9178 15.4014 66.0598 16.2294 66.0598 17.872C66.0598 19.5145 64.8446 20.3425 62.4821 20.3425Z" fill="#3F3F3F"/>
<path d="M95.6225 5.48633H88.282V23.3188H92.1294V18.2672H95.6225C100.306 18.2672 103.203 15.8036 103.203 11.8672C103.203 7.93096 100.306 5.48633 95.6225 5.48633ZM95.5414 15.2973H92.1294V8.45616H95.5414C98.0048 8.45616 99.3643 9.67171 99.3643 11.8781C99.3643 14.0845 98.0048 15.2973 95.5414 15.2973Z" fill="#3F3F3F"/>
<path d="M48.8494 19.11C47.8555 19.648 46.7419 19.9266 45.6118 19.92C42.2291 19.92 39.7752 17.5059 39.7752 14.1817C39.7752 10.8573 42.2291 8.43797 45.6118 8.43797C46.8316 8.41726 48.0262 8.78703 49.0209 9.49333L51.7122 7.51191L51.5302 7.38264C49.9603 6.00279 47.8626 5.27197 45.4614 5.27197C42.8571 5.27197 40.4956 6.14789 38.8095 7.74145C37.9569 8.56195 37.2827 9.54931 36.8287 10.6419C36.3748 11.7345 36.1508 12.9089 36.1709 14.0919C36.1529 15.2869 36.3758 16.4733 36.8264 17.5802C37.2771 18.6872 37.9461 19.692 38.7937 20.5348C40.4876 22.1916 42.8439 23.1044 45.4298 23.1044C48.1317 23.1044 50.4933 22.1625 52.0923 20.4477L49.6832 18.6536L48.8494 19.11Z" fill="#3F3F3F"/>
<path d="M118.459 12.4356H113.779V8.4551H123.836V5.47852H109.931V23.311H117.953C122.456 23.311 125.041 21.2707 125.041 17.7123C125.051 14.3082 122.711 12.4356 118.459 12.4356ZM117.791 20.3425H113.779V15.4014H117.791C120.226 15.4014 121.368 16.2294 121.368 17.872C121.368 19.5145 120.164 20.3425 117.791 20.3425Z" fill="#3F3F3F"/>
<path d="M168.784 23.2856H164.883V5.45312H168.784V12.9429H170.907L176.64 5.45312H181.061L174.26 13.9363L182.157 23.2856H176.981L171.177 16.2723H168.784V23.2856Z" fill="#3F3F3F"/>
<path d="M139.212 19.8965H130.961L129.562 23.3593H125.411L133.15 5.52686H137.3L144.914 23.3593H140.611L139.212 19.8965ZM137.92 16.6654L135.111 9.7396L132.286 16.6654H137.92Z" fill="#3F3F3F"/>
<path d="M150.165 5.52686V12.9734H158.237V5.52686H162.259V23.3593H158.237V16.3327H150.165V23.3593H146.143V5.52686H150.165Z" fill="#3F3F3F"/>
</g>
</g>
<defs>
<clipPath id="clip0_371_17365">
<rect width="183.252" height="28.7301" fill="white" transform="translate(0.413086 0.313477)"/>
</clipPath>
</defs>
</svg>
