<svg width="17" height="17" viewBox="0 0 17 17" fill="none" xmlns="http://www.w3.org/2000/svg">
<path fill-rule="evenodd" clip-rule="evenodd" d="M15.5353 16.7363L11.6923 12.8863C8.69301 15.2551 4.36748 14.8755 1.82652 12.0205C-0.714454 9.16545 -0.590308 4.8244 2.10954 2.11923C4.80951 -0.585937 9.14955 -0.71775 12.0087 1.81858C14.8678 4.3549 15.255 8.68042 12.8919 11.6844L16.7349 15.5344C16.9588 15.7468 17.0499 16.0639 16.9728 16.3628C16.8957 16.6616 16.6627 16.8951 16.364 16.9727C16.0653 17.0503 15.7481 16.9598 15.5354 16.7363L15.5353 16.7363ZM1.71609 7.21456C1.71065 9.43369 3.0366 11.4397 5.08034 12.3041C7.12395 13.1685 9.4866 12.7226 11.075 11.1729C11.0913 11.1537 11.1083 11.1353 11.126 11.1176C11.144 11.0995 11.1622 11.0826 11.1812 11.0666C12.9254 9.28543 13.2597 6.55614 11.9969 4.40655C10.7342 2.25695 8.18761 1.2205 5.78297 1.87734C3.37832 2.53419 1.71208 4.72137 1.71713 7.21453L1.71609 7.21456Z" fill="white"/>
</svg>
