<svg width="64" height="64" viewBox="0 0 64 64" fill="none" xmlns="http://www.w3.org/2000/svg">
<g clip-path="url(#clip0_371_17251)">
<path d="M55.9938 38.1686C55.4418 38.1686 54.9938 37.7208 54.9938 37.1687C54.9938 36.6165 55.4417 36.1686 55.9938 36.1686H60.4143C60.8478 36.1686 61.2455 35.9895 61.531 35.7019C61.8185 35.4144 61.9977 35.0187 61.9977 34.5853V29.4188C61.9977 28.9834 61.8207 28.5856 61.5352 28.3022L61.533 28.3001L61.5308 28.3022C61.2433 28.0147 60.8476 27.8356 60.4141 27.8356H55.9935C55.4937 27.8356 55.079 27.4669 55.0061 26.9856C54.7062 25.6044 54.2852 24.2691 53.7562 22.9941L53.7354 22.942C53.1959 21.6462 52.5376 20.4046 51.7813 19.2338C51.5209 18.8317 51.5854 18.3109 51.9125 17.9859L51.9104 17.9838L55.0394 14.8547C55.3457 14.5485 55.4977 14.1402 55.4977 13.7361C55.4977 13.3298 55.3435 12.9214 55.0394 12.6173L51.3873 8.96537C51.0811 8.65907 50.675 8.50493 50.2666 8.50493C49.8582 8.50493 49.4499 8.65698 49.148 8.96119L49.1438 8.9591L49.146 8.96119L46.019 12.0882C45.6629 12.4444 45.1004 12.4736 44.7066 12.1777C43.5399 11.4257 42.3025 10.7757 41.0108 10.2423L41.0067 10.2402V10.2423C39.715 9.70691 38.3589 9.27983 36.9567 8.982C36.488 8.88203 36.1651 8.46749 36.1651 8.00496H36.1629V3.58448C36.1629 3.14903 35.986 2.75112 35.7004 2.46783L35.6963 2.46364C35.4152 2.17826 35.0192 2.00121 34.5818 2.00121H29.4153C28.9799 2.00121 28.5821 2.17826 28.2987 2.46364L28.2945 2.46783C28.0091 2.75112 27.832 3.14903 27.832 3.58448V8.00506C27.832 8.50504 27.4611 8.91967 26.98 8.99256C25.5967 9.29468 24.2593 9.7134 22.9885 10.2405V10.2425C21.6698 10.7884 20.4095 11.4529 19.2261 12.2174C18.8282 12.4799 18.3074 12.4133 17.9824 12.0862L17.9803 12.0883L14.8513 8.9613C14.545 8.6551 14.1367 8.50096 13.7326 8.50096C13.3284 8.50096 12.92 8.6551 12.6159 8.9592L12.6138 8.9613L8.95976 12.6153C8.65555 12.9215 8.49942 13.3278 8.49942 13.7341C8.49942 14.1404 8.65357 14.5486 8.95976 14.8548L9.01184 14.9111L12.0891 17.9882C12.4265 18.3277 12.4681 18.8486 12.2182 19.234C11.4537 20.4152 10.7891 21.6756 10.2433 22.9943C9.7058 24.2859 9.28081 25.64 8.98089 27.0421C8.88091 27.5108 8.46638 27.8337 8.00384 27.8337V27.8358H3.58326C3.14781 27.8358 2.75408 28.0128 2.46661 28.2962L2.46242 28.3004C2.17704 28.5879 1.99999 28.9837 1.99999 29.4171V34.5836C1.99999 35.0169 2.17913 35.4146 2.46661 35.7002L2.50823 35.746C2.78734 36.0064 3.16653 36.1667 3.58106 36.1667H8.00175C8.50172 36.1667 8.91626 36.5355 8.98915 37.0167C9.28917 38.398 9.70998 39.7335 10.2391 41.0082L10.2599 41.0603C10.7995 42.3562 11.4578 43.5978 12.2141 44.7686C12.4745 45.1706 12.41 45.6914 12.0829 46.0185L12.085 46.0206L8.95798 49.1476C8.65179 49.4538 8.49765 49.8622 8.49765 50.2685C8.49765 50.6747 8.65179 51.083 8.95798 51.3871L12.612 55.0391C12.9183 55.3455 13.3245 55.4994 13.7308 55.4994C14.1391 55.4994 14.5453 55.3473 14.8495 55.0452L17.9765 51.9161C18.3182 51.5702 18.8536 51.5287 19.241 51.7912C20.418 52.5515 21.6743 53.2162 22.9888 53.7599L23.0263 53.7764C24.3013 54.3015 25.645 54.7201 27.0345 55.018C27.5032 55.118 27.8261 55.5327 27.8261 55.9952H27.8282V60.4158C27.8282 60.8511 28.0052 61.2469 28.2885 61.5344L28.2927 61.5386C28.5802 61.8219 28.976 61.9989 29.4094 61.9989H34.5759C35.0093 61.9989 35.407 61.8197 35.6925 61.5322L35.7383 61.4907C35.9986 61.2095 36.159 60.8303 36.159 60.4158V55.9952C36.159 55.4953 36.5277 55.0807 37.009 55.0057C38.3903 54.7057 39.7257 54.2869 40.9984 53.7576C42.317 53.2097 43.5797 52.5452 44.7608 51.7807C45.1629 51.5181 45.6858 51.5848 46.0129 51.9139L46.0337 51.9347L49.1378 55.0408L49.14 55.0386C49.4462 55.3449 49.8524 55.499 50.2586 55.499C50.6668 55.499 51.0754 55.3469 51.3814 55.0428L51.3793 55.0406L55.0312 51.3886L55.075 51.347C55.3519 51.0471 55.4896 50.6575 55.4896 50.268C55.4896 49.8618 55.3353 49.4534 55.0312 49.1472L54.2499 48.3659L53.4686 47.5845L52.6874 46.8034L52.6373 46.7471L51.9145 46.02C51.5667 45.6742 51.527 45.1347 51.7957 44.7471L52.0561 44.3348H52.0539L52.335 43.8661L52.3538 43.8348L52.5829 43.4327L52.8433 42.9495L52.8558 42.9287L53.0745 42.4995L53.0723 42.4974L53.3118 42.0016C53.5514 41.5058 54.1473 41.2976 54.6431 41.5372C55.1389 41.7768 55.3471 42.3724 55.1075 42.8683L54.8679 43.3641H54.872L54.8616 43.3849L54.6345 43.8308L54.6032 43.8934L54.3428 44.3766L54.3304 44.3974L54.0742 44.8453L54.047 44.8954L53.8825 45.1682L54.0492 45.3349L54.1076 45.387L54.8889 46.1703L55.6702 46.9515L56.4515 47.7328C57.1472 48.4286 57.4973 49.3494 57.4973 50.2681C57.4973 51.1514 57.1723 52.0368 56.5224 52.7264L56.4537 52.8035L52.8017 56.4554L52.7995 56.4532L52.7973 56.4554C52.0994 57.1511 51.1807 57.5012 50.2682 57.5012C49.3495 57.5012 48.4308 57.1532 47.7329 56.4554L47.735 56.4532L47.7329 56.451L45.1684 53.8866C44.0853 54.5409 42.9497 55.1158 41.7727 55.6032C40.6123 56.0846 39.4082 56.4823 38.1687 56.7906V60.4155C38.1687 61.3612 37.7937 62.232 37.1833 62.8737L37.1164 62.9466C36.4687 63.5944 35.5685 63.9987 34.5853 63.9987H29.4188C28.4355 63.9987 27.5397 63.5946 26.8897 62.9487L26.8856 62.9446C26.2355 62.2946 25.8314 61.3989 25.8314 60.4155V56.7864C24.6169 56.4843 23.4315 56.0926 22.2857 55.6239L22.2274 55.6032C21.0504 55.1135 19.9128 54.5386 18.8316 53.8866L16.2671 56.451L16.263 56.4552C15.5651 57.1509 14.6463 57.501 13.7339 57.501C12.8151 57.501 11.8964 57.153 11.2006 56.4552L7.54716 52.8035C6.85132 52.1076 6.50142 51.1868 6.50142 50.2681C6.50142 49.3494 6.85143 48.4286 7.54716 47.7328L10.1158 45.1643C9.47626 44.1019 8.90758 42.9831 8.42423 41.8228L8.40133 41.7727C7.92008 40.6103 7.52008 39.4042 7.21179 38.1667H3.58326C2.63748 38.1667 1.76867 37.7917 1.12502 37.1813L1.05213 37.1145C0.404182 36.4667 0 35.5688 0 34.5834V29.4169C0 28.4335 0.404182 27.5399 1.05202 26.8898L1.05621 26.8856C1.70614 26.2377 2.59994 25.8336 3.58326 25.8336H7.21022C7.51851 24.594 7.91851 23.3878 8.39976 22.2274C8.88729 21.0525 9.46224 19.9171 10.1144 18.8338L7.60196 16.3193L7.5457 16.2693C6.84986 15.5735 6.49995 14.6506 6.49995 13.734C6.49995 12.8173 6.84996 11.8965 7.5457 11.2008L11.1998 7.5488L11.2018 7.54671C11.8977 6.84878 12.8164 6.50096 13.7331 6.50096C14.6497 6.50096 15.5705 6.84888 16.2663 7.54671L16.2684 7.5488L18.835 10.1154C19.9162 9.46336 21.0515 8.8883 22.2265 8.40077V8.40287L22.2307 8.40077C23.3932 7.91952 24.5993 7.51952 25.8327 7.21333V3.58416C25.8327 2.60294 26.2348 1.70715 26.8847 1.05711L26.8889 1.05293C27.5386 0.403311 28.4365 0.0012207 29.4156 0.0012207H34.5822C35.5634 0.0012207 36.4591 0.403311 37.1091 1.05324L37.1133 1.05743C37.7633 1.70736 38.1654 2.60325 38.1654 3.58448V7.21155C39.4049 7.51984 40.6112 7.91983 41.7715 8.40109V8.40318C42.9504 8.8928 44.0837 9.46566 45.1608 10.1156L47.7295 7.54901L47.7317 7.5511C48.4316 6.85118 49.3504 6.50326 50.2628 6.50326C51.1815 6.50326 52.1002 6.85118 52.7982 7.54901L56.4501 11.201C57.1459 11.8988 57.4959 12.8176 57.4959 13.7363C57.4959 14.6529 57.1482 15.5737 56.4501 16.2695L53.8815 18.8382C54.5211 19.9007 55.0899 21.0172 55.5733 22.1798L55.5962 22.2297C56.0775 23.3922 56.4775 24.5984 56.7857 25.8358H60.4148C61.4002 25.8358 62.298 26.24 62.9459 26.8879L62.9438 26.89C63.5937 27.5401 64 28.4379 64 29.4192V34.5856C64 35.571 63.5959 36.4689 62.9459 37.1168C62.298 37.7647 61.398 38.1688 60.4148 38.1688L55.9938 38.1686ZM23.0304 53.7785L23.5304 55.0639C23.7366 54.5701 23.5138 54.0015 23.0304 53.7785ZM51.7981 44.7475L51.9106 44.6102C51.869 44.6517 51.8294 44.6976 51.7981 44.7475ZM52.8585 42.929L53.2148 42.5644C53.071 42.6498 52.9481 42.7727 52.8585 42.929Z" fill="#808080"/>
<path d="M31.9987 19.3756C35.4861 19.3756 38.6444 20.7901 40.9254 23.0734C43.2086 25.3567 44.6231 28.5128 44.6231 32.0002C44.6231 35.4855 43.2086 38.6435 40.9254 40.9268C38.6421 43.2102 35.484 44.6246 31.9987 44.6246C28.5114 44.6246 25.3531 43.2102 23.0699 40.9269C20.7887 38.6436 19.3743 35.4873 19.3743 32.0002C19.3743 28.5148 20.7887 25.3546 23.0699 23.0713C25.3552 20.7901 28.5135 19.3756 31.9987 19.3756ZM39.5131 24.4879C37.5924 22.567 34.9341 21.3754 32.0008 21.3754C29.0676 21.3754 26.4094 22.5649 24.4886 24.4858C22.5679 26.4065 21.3783 29.0648 21.3783 32.0001C21.3783 34.9333 22.5679 37.5893 24.4886 39.5123C26.4094 41.4331 29.0676 42.6247 32.0008 42.6247C34.9341 42.6247 37.5924 41.4331 39.5131 39.5123C41.4338 37.5916 42.6256 34.9333 42.6256 32.0001C42.6233 29.0669 41.4338 26.4108 39.5131 24.4879Z" fill="#808080"/>
<path d="M31.9989 24.542C34.0593 24.542 35.9259 25.3774 37.2716 26.7252C38.6196 28.0731 39.4568 29.9397 39.4568 32.0001C39.4568 34.052 38.6216 35.9166 37.2716 37.2686L37.2694 37.2707L37.2673 37.2729L37.2651 37.2751C35.9131 38.6251 34.0508 39.4583 31.9988 39.4583C29.9385 39.4583 28.0739 38.6231 26.724 37.2731C25.3761 35.9253 24.5408 34.0587 24.5408 32.0005C24.5408 29.9442 25.3762 28.0777 26.724 26.7298L26.7282 26.7256C28.0782 25.3774 29.9449 24.542 31.9989 24.542ZM35.8592 28.1398C34.8738 27.1544 33.5072 26.5419 32.0008 26.5419C30.4946 26.5419 29.128 27.1502 28.1405 28.1356L28.1364 28.1398C27.153 29.1272 26.5426 30.4939 26.5426 32.0001C26.5426 33.5061 27.1551 34.8728 28.1404 35.8582C29.1279 36.8457 30.4924 37.4582 32.0007 37.4582C33.5111 37.4582 34.8756 36.8478 35.8591 35.8647L35.8633 35.8605C36.8486 34.8772 37.4568 33.5104 37.4568 32.0022C37.4568 30.4939 36.8446 29.1273 35.8592 28.1398Z" fill="#808080"/>
</g>
<defs>
<clipPath id="clip0_371_17251">
<rect width="64" height="64" fill="white"/>
</clipPath>
</defs>
</svg>
