<svg width="54" height="62" viewBox="0 0 54 62" fill="none" xmlns="http://www.w3.org/2000/svg">
<g clip-path="url(#clip0_371_17273)">
<path fill-rule="evenodd" clip-rule="evenodd" d="M53.0358 12.6906C53.0358 45.5313 32.2072 61.0312 27.0001 61.0312C21.7929 61.0312 0.964355 45.5313 0.964355 12.6906C0.964355 2.13125 17.1644 0.96875 27.0001 0.96875C36.8358 0.96875 53.0358 2.03438 53.0358 12.6906Z" stroke="#808080" stroke-width="2"/>
<path fill-rule="evenodd" clip-rule="evenodd" d="M27.0001 57.1562C23.3358 56.3812 4.91797 43.0125 4.91797 12.6906C4.91797 9.00938 10.0287 4.84375 27.0001 4.84375C43.9715 4.84375 49.0823 9.00938 49.0823 12.6906C49.0823 43.0125 30.6644 56.3812 27.0001 57.1562Z" stroke="#808080" stroke-width="2"/>
<path fill-rule="evenodd" clip-rule="evenodd" d="M37.6072 24.3156L34.9072 21.6031C34.5215 21.2156 33.943 21.2156 33.5572 21.6031L26.0358 29.1594L22.6608 25.7688C22.2751 25.3813 21.6965 25.3813 21.3108 25.7688L18.6108 28.4813C18.2251 28.8688 18.2251 29.45 18.6108 29.8375L25.4572 36.7156C25.843 37.1031 26.4215 37.1031 26.8072 36.7156L37.7037 25.7688C37.993 25.2844 37.993 24.7031 37.6072 24.3156Z" stroke="#808080" stroke-width="2"/>
</g>
<defs>
<clipPath id="clip0_371_17273">
<rect width="54" height="62" fill="white"/>
</clipPath>
</defs>
</svg>
