<svg width="17" height="17" viewBox="0 0 17 17" fill="none" xmlns="http://www.w3.org/2000/svg">
<path fill-rule="evenodd" clip-rule="evenodd" d="M8.53736 0.500039C6.42705 0.506342 4.70867 2.19779 4.66904 4.30763C4.66668 4.32905 4.66542 4.3506 4.66526 4.37214V5.0175H2.72921C2.37281 5.0175 2.08385 5.30641 2.08385 5.66285V10.8257C2.05817 11.6291 2.08732 12.4334 2.17098 13.2328C2.14491 13.9489 2.41795 14.6434 2.92473 15.1499C3.43151 15.6564 4.12618 15.9291 4.84219 15.9026C5.42429 15.9899 6.01355 16.0186 6.60131 15.9884L10.4734 15.9885C11.0621 16.0187 11.6524 15.9896 12.2352 15.9013C12.9512 15.9275 13.6458 15.6544 14.1523 15.1477C14.6588 14.6409 14.9316 13.9462 14.905 13.2302C14.988 12.4316 15.0166 11.6282 14.9909 10.8257V5.66285C14.9909 5.30641 14.7019 5.0175 14.3455 5.0175H12.4095V4.37214C12.4096 4.34776 12.4084 4.32342 12.4056 4.29924C12.3612 2.19279 10.6443 0.506539 8.53744 0.5L8.53736 0.500039ZM8.53738 1.79074C9.22275 1.78853 9.88063 2.05977 10.3652 2.54437C10.8498 3.02894 11.1211 3.68685 11.1188 4.37214V5.01749H5.95598V4.37214C5.95369 3.68681 6.225 3.02894 6.70957 2.54433C7.19413 2.05977 7.85209 1.7885 8.53738 1.79074ZM3.37457 6.30822H4.66528V7.59892C4.66205 7.82955 4.7821 8.04433 4.98015 8.16238C5.17828 8.28047 5.4243 8.28386 5.62558 8.17132C5.82686 8.05879 5.95283 7.84739 5.95598 7.6168C5.95598 7.61121 5.95598 7.60475 5.95598 7.59892V6.30822H11.1188V7.59892C11.1156 7.82955 11.2356 8.04433 11.4337 8.16238C11.6318 8.28047 11.8778 8.28386 12.0791 8.17132C12.2804 8.05879 12.4063 7.84739 12.4095 7.6168C12.4095 7.61121 12.4095 7.60475 12.4095 7.59892V6.30822H13.7002V10.8257C13.7241 11.5795 13.6981 12.3341 13.6221 13.0844C13.6821 13.5063 13.5402 13.9317 13.239 14.2331C12.9379 14.5345 12.5125 14.6767 12.0907 14.6171C11.5558 14.701 11.0138 14.728 10.4734 14.6978H6.60133C6.06225 14.7285 5.52152 14.7023 4.98795 14.6197C4.56617 14.6797 4.14069 14.5378 3.83929 14.2367C3.53788 13.9355 3.39561 13.5102 3.45524 13.0883C3.37812 12.3368 3.35118 11.5809 3.37457 10.8257V6.30822Z" fill="white"/>
</svg>
