<svg width="11" height="10" viewBox="0 0 11 10" fill="none" xmlns="http://www.w3.org/2000/svg">
<path d="M10.107 8.50683C9.99276 8.81911 9.5484 9.40451 9.23791 9.65456C8.95668 9.8804 8.75786 9.967 8.49516 9.98016C8.27903 9.99137 8.18942 9.97188 7.91309 9.85083C5.74535 8.90409 4.01462 7.49136 2.64017 5.5501C1.92255 4.53642 1.37602 3.48504 1.00257 2.39434C0.784757 1.75809 0.774035 1.48188 0.952944 1.15628C1.0303 1.01915 1.35932 0.679089 1.59812 0.48948C1.99684 0.175415 2.18034 0.0592449 2.32708 0.0267498C2.42741 0.00367828 2.60203 0.0215506 2.71324 0.0641192C2.76731 0.0837787 2.85048 0.129759 2.89843 0.162254C3.19191 0.368436 4.00849 1.47554 4.27548 2.02796C4.42819 2.34365 4.47935 2.57745 4.43156 2.75081C4.38239 2.93717 4.30045 3.03515 3.93451 3.34759C3.78777 3.47334 3.65037 3.60267 3.62877 3.63696C3.57301 3.72193 3.52813 3.88863 3.52813 4.00642C3.53013 4.27971 3.69693 4.77493 3.91597 5.1561C4.08569 5.45197 4.39005 5.83135 4.6912 6.12267C5.04473 6.46582 5.35659 6.69962 5.70859 6.88452C6.16107 7.12319 6.4374 7.18363 6.63959 7.08387C6.6906 7.0595 6.74467 7.02668 6.76167 7.01206C6.7773 6.99727 6.89601 6.84357 7.0259 6.67346C7.27604 6.3399 7.33286 6.28596 7.50427 6.22373C7.72193 6.14541 7.94404 6.16654 8.16813 6.28758C8.33816 6.38084 8.70869 6.62439 8.94795 6.801C9.26272 7.03481 9.93639 7.61696 10.0272 7.73296C10.1876 7.94256 10.2149 8.21097 10.107 8.50683Z" fill="white"/>
<path d="M10.0268 7.73307C9.936 7.61706 9.26233 7.03508 8.94755 6.80111C8.70829 6.6245 8.33792 6.38095 8.16774 6.28769C7.94364 6.16664 7.72154 6.14552 7.50387 6.22384C7.33247 6.28606 7.27564 6.34001 7.02551 6.67357C6.89561 6.84368 6.7769 6.99738 6.76128 7.01217C6.74428 7.02679 6.6902 7.05961 6.6392 7.08398C6.437 7.18374 6.16068 7.1233 5.70819 6.88462C5.3562 6.69973 5.04433 6.46592 4.6908 6.12278C4.38966 5.83146 4.08545 5.45208 3.91558 5.15621C3.69638 4.77504 3.52958 4.27965 3.52774 4.00653C3.52774 3.88874 3.57262 3.7222 3.62837 3.63706C3.63711 3.62309 3.66498 3.59336 3.70481 3.55518C3.15981 3.9019 2.50544 4.10434 1.80129 4.10434C1.78322 4.10434 1.7653 4.10304 1.74707 4.10272C2.00778 4.59356 2.30448 5.07611 2.63993 5.55021C4.01438 7.49147 5.74496 8.90419 7.91285 9.85094C8.18918 9.97198 8.27879 9.99164 8.49492 9.98027C8.75762 9.96695 8.95644 9.88035 9.23767 9.65467C9.548 9.40462 9.99252 8.81922 10.1068 8.50694C10.2148 8.21091 10.1875 7.9425 10.0268 7.73307Z" fill="white"/>
<path d="M10.0271 7.7332C9.93622 7.61719 9.26256 7.0352 8.94778 6.80124C8.70852 6.62463 8.33814 6.38108 8.16796 6.28782C7.94387 6.16677 7.72176 6.14565 7.5041 6.22396C7.3327 6.28619 7.27587 6.34013 7.02573 6.6737C6.89584 6.84381 6.77713 6.99751 6.7615 7.01229C6.74542 7.02627 6.69533 7.05632 6.64647 7.08037C6.26322 7.57007 5.81181 7.99348 5.30664 8.33078C6.09611 8.93064 6.96262 9.43562 7.91338 9.85074C8.18971 9.97178 8.27932 9.99144 8.49545 9.98007C8.75815 9.96675 8.95697 9.88015 9.2382 9.65447C9.54853 9.40442 9.99305 8.81902 10.1073 8.50674C10.215 8.21104 10.1877 7.94263 10.0271 7.7332Z" fill="white"/>
</svg>
