<svg width="60" height="55" viewBox="0 0 60 55" fill="none" xmlns="http://www.w3.org/2000/svg">
<path d="M1.75 6.125V1.375C1.75 1.125 1.875 1 2.125 1H54.25L58.25 3.5C58.5 3.625 58.5 3.875 58.25 4L54.25 6.5H2.125C1.875 6.5 1.75 6.375 1.75 6.125Z" stroke="#808080" stroke-width="2" stroke-miterlimit="10"/>
<path d="M7 0.75V6.75" stroke="#808080" stroke-width="2" stroke-miterlimit="10"/>
<path d="M53.125 0.75V6.75" stroke="#808080" stroke-width="2" stroke-miterlimit="10"/>
<path d="M57.75 53.25H2.5C2.375 53.25 2.25 53.125 2.25 53V43C2.25 42.875 2.375 42.75 2.5 42.75H57.75C57.875 42.75 58 42.875 58 43V53C58 53.125 57.875 53.25 57.75 53.25Z" stroke="#808080" stroke-width="2" stroke-miterlimit="10"/>
<path d="M7.625 42.75V47.125" stroke="#808080" stroke-width="2" stroke-miterlimit="10"/>
<path d="M13.25 42.75V47.125" stroke="#808080" stroke-width="2" stroke-miterlimit="10"/>
<path d="M18.75 42.75V47.125" stroke="#808080" stroke-width="2" stroke-miterlimit="10"/>
<path d="M24.375 42.75V47.125" stroke="#808080" stroke-width="2" stroke-miterlimit="10"/>
<path d="M29.875 42.75V47.125" stroke="#808080" stroke-width="2" stroke-miterlimit="10"/>
<path d="M35.5 42.75V47.125" stroke="#808080" stroke-width="2" stroke-miterlimit="10"/>
<path d="M41 42.75V47.125" stroke="#808080" stroke-width="2" stroke-miterlimit="10"/>
<path d="M46.625 42.75V47.125" stroke="#808080" stroke-width="2" stroke-miterlimit="10"/>
<path d="M52.125 42.75V47.125" stroke="#808080" stroke-width="2" stroke-miterlimit="10"/>
<path d="M20.375 11.375H39C39.875 11.375 41.625 11.375 41.625 11.375V21.125H41.25C41 19.25 40.5 18.125 39.875 17.625C39.25 17.125 38.5 16.875 37.5 16.875H32.5V34C32.5 34.75 32.625 35.25 32.75 35.75C32.875 36.25 33.25 36.625 33.75 37C34.25 37.25 35 37.5 35.875 37.5V38H23.375V37.5C24.75 37.5 25.625 37.125 26.125 36.5C26.5 35.875 26.75 35 26.75 34V16.875H21.75C20.875 16.875 20.25 17.125 19.625 17.625C19.125 18.125 18.625 19.25 18.125 21.125H17.75V11.375C17.75 11.375 19.625 11.375 20.375 11.375Z" stroke="#808080" stroke-width="2" stroke-miterlimit="10"/>
<path d="M12.125 35.625V39" stroke="#808080" stroke-width="2" stroke-miterlimit="10"/>
<path d="M12.125 29.375V32.625" stroke="#808080" stroke-width="2" stroke-miterlimit="10"/>
<path d="M12.125 23V26.25" stroke="#808080" stroke-width="2" stroke-miterlimit="10"/>
<path d="M12.125 16.625V19.875" stroke="#808080" stroke-width="2" stroke-miterlimit="10"/>
<path d="M12.125 10.25V13.5" stroke="#808080" stroke-width="2" stroke-miterlimit="10"/>
<path d="M47.125 35.625V39" stroke="#808080" stroke-width="2" stroke-miterlimit="10"/>
<path d="M47.125 29.375V32.625" stroke="#808080" stroke-width="2" stroke-miterlimit="10"/>
<path d="M47.125 23V26.25" stroke="#808080" stroke-width="2" stroke-miterlimit="10"/>
<path d="M47.125 16.625V19.875" stroke="#808080" stroke-width="2" stroke-miterlimit="10"/>
<path d="M47.125 10.25V13.5" stroke="#808080" stroke-width="2" stroke-miterlimit="10"/>
</svg>
