<svg width="62" height="62" viewBox="0 0 62 62" fill="none" xmlns="http://www.w3.org/2000/svg">
<g id="Frame 512613">
<rect width="62" height="62" fill="white"/>
<path id="Vector" d="M31.348 26C31.1183 26.0067 30.8975 26.0967 30.735 26.2533L26.0745 30.6367L23.2037 27.9367C22.3998 27.1467 21.1013 28.3667 21.9405 29.1233L25.4438 32.42C25.7918 32.7483 26.3572 32.7483 26.707 32.42L31.9981 27.4417C32.5811 26.9083 32.1518 26 31.3498 26H31.348ZM4.88333 32.6667H10.1833C10.6727 32.6667 11.0667 33.0383 11.0667 33.5C11.0667 33.9617 10.6727 34.3333 10.1833 34.3333H4.88333C4.39397 34.3333 4 33.9617 4 33.5C4 33.0383 4.39397 32.6667 4.88333 32.6667ZM4.88333 26H10.1833C10.6727 26 11.0667 26.3717 11.0667 26.8333C11.0667 27.295 10.6727 27.6667 10.1833 27.6667H4.88333C4.39397 27.6667 4 27.295 4 26.8333C4 26.3717 4.39397 26 4.88333 26ZM4.88333 19.3333H10.1833C10.6727 19.3333 11.0667 19.705 11.0667 20.1667C11.0667 20.6283 10.6727 21 10.1833 21H4.88333C4.39397 21 4 20.6283 4 20.1667C4 19.705 4.39397 19.3333 4.88333 19.3333ZM47.2833 37.6667C44.8542 37.6667 42.8667 39.5417 42.8667 41.8333C42.8667 44.125 44.8542 46 47.2833 46C49.7125 46 51.7 44.125 51.7 41.8333C51.7 39.5417 49.7125 37.6667 47.2833 37.6667ZM47.2833 39.3333C48.7567 39.3333 49.9333 40.4433 49.9333 41.8333C49.9333 43.2233 48.7567 44.3333 47.2833 44.3333C45.8099 44.3333 44.6333 43.2233 44.6333 41.8333C44.6333 40.4433 45.8099 39.3333 47.2833 39.3333ZM24.3167 37.6667C21.8875 37.6667 19.9 39.5417 19.9 41.8333C19.9 44.125 21.8875 46 24.3167 46C26.7458 46 28.7333 44.125 28.7333 41.8333C28.7333 39.5417 26.7458 37.6667 24.3167 37.6667ZM24.3167 39.3333C25.7901 39.3333 26.9667 40.4433 26.9667 41.8333C26.9667 43.2233 25.7901 44.3333 24.3167 44.3333C22.8433 44.3333 21.6667 43.2233 21.6667 41.8333C21.6667 40.4433 22.8433 39.3333 24.3167 39.3333ZM15.4833 16C14.0311 16 12.8333 17.13 12.8333 18.5V36.8333C12.8333 38.2033 14.0311 39.3333 15.4833 39.3333H19.0167C20.2109 39.35 20.2109 37.65 19.0167 37.6667H15.4833C14.9781 37.6667 14.6 37.31 14.6 36.8333V18.5C14.6 18.0233 14.9781 17.6667 15.4833 17.6667H38.45C38.9553 17.6667 39.3333 18.0233 39.3333 18.5V37.6667H29.6167C28.4507 37.6667 28.4719 39.35 29.6167 39.3333H41.9833C43.1493 39.3333 43.1387 37.6667 41.9833 37.6667H41.1V22.6667H48.5677L55.2333 32.4933V36.8333C55.2333 37.31 54.8553 37.6667 54.35 37.6667H52.5833C51.4279 37.6667 51.4279 39.3333 52.5833 39.3333H54.35C55.8022 39.3333 57 38.2033 57 36.8333V32.25C57 32.0917 56.9523 31.9333 56.8622 31.8L49.7955 21.3833C49.633 21.145 49.3539 21 49.05 21H41.1V18.5C41.1 17.13 39.9022 16 38.45 16H15.4833Z" fill="#808080"/>
</g>
</svg>
