<svg width="26" height="17" viewBox="0 0 26 17" fill="none" xmlns="http://www.w3.org/2000/svg">
<path d="M25.2131 1.68361C25.392 1.05851 25.2131 0.600098 24.3674 0.600098H21.5657C20.8529 0.600098 20.5271 0.99667 20.3482 1.43223C20.3482 1.43223 18.9238 5.08741 16.9052 7.45743C16.2537 8.14706 15.956 8.36484 15.6009 8.36484C15.4233 8.36484 15.1652 8.14706 15.1652 7.52196V1.68361C15.1652 0.933487 14.9595 0.600098 14.3655 0.600098H9.96307C9.51848 0.600098 9.2502 0.94693 9.2502 1.27763C9.2502 1.98743 10.2595 2.15143 10.3629 4.15177V8.49121C10.3629 9.44164 10.2007 9.61505 9.84298 9.61505C8.89376 9.61505 6.58396 5.94643 5.21316 1.7468C4.94615 0.930799 4.67659 0.601443 3.96116 0.601443H1.16079C0.359766 0.601443 0.200073 0.998014 0.200073 1.43357C0.200073 2.21596 1.14929 6.08758 4.62165 11.2081C6.93656 14.7046 10.1956 16.6001 13.1646 16.6001C14.9442 16.6001 15.1639 16.1793 15.1639 15.4534V12.8105C15.1639 11.9689 15.3339 11.7996 15.8973 11.7996C16.3112 11.7996 17.0241 12.02 18.6861 13.7044C20.5846 15.7021 20.8988 16.5988 21.9656 16.5988H24.766C25.5657 16.5988 25.9656 16.178 25.7356 15.3472C25.484 14.5204 24.5769 13.3173 23.3734 11.8937C22.7193 11.0817 21.742 10.2079 21.4444 9.77099C21.0292 9.20773 21.1492 8.95903 21.4444 8.45895C21.4444 8.45895 24.858 3.40299 25.2131 1.68361Z" fill="white"/>
</svg>
